<svg xmlns="http://www.w3.org/2000/svg" xmlns:xlink="http://www.w3.org/1999/xlink" width="30" height="30" viewBox="0 0 30 30"><defs><style>.a,.b{fill:#fff;}.b{stroke:#707070;opacity:0;}.c{clip-path:url(#a);}.d{stroke:none;}.e{fill:none;}</style><clipPath id="a"><rect class="a" width="26.119" height="25.166"/></clipPath></defs><g class="b"><rect class="d" width="30" height="30"/><rect class="e" x="0.5" y="0.5" width="29" height="29"/></g><g transform="translate(9.425 80.018)"><g transform="translate(-7.721 -78.167)"><g class="c" transform="translate(0 0)"><path class="a" d="M16.735-67.288A11.479,11.479,0,0,0,5.258-78.162,11.466,11.466,0,0,0-6.16-67.288a5.142,5.142,0,0,0-1.631,3.745c0,1.933,1.148,4.229,2.96,4.229,1.631,0,1.631-1.812,1.631-4.229,0-2.235,0-4.047-1.087-4.229A9.618,9.618,0,0,1,5.258-76.35,9.607,9.607,0,0,1,14.8-67.892c-1.087.362-1.087,1.994-1.087,4.229a11.2,11.2,0,0,0,.3,3.564A10.2,10.2,0,0,1,7.8-55.508a3.211,3.211,0,0,0-2.6-1.148c-1.631,0-2.96.846-2.96,1.812s1.329,1.812,2.96,1.812,2.96-.846,2.96-1.812A11.066,11.066,0,0,0,14.5-59.555c.181.181.483.181.846.181,1.813,0,2.96-2.3,2.96-4.229a4.835,4.835,0,0,0-1.571-3.686Zm0,0" transform="translate(7.787 78.162)"/></g></g><path class="a" d="M115.678,68.322a1.147,1.147,0,0,0,1.148-1.148V64.336a1.147,1.147,0,0,0-1.148-1.148,1.188,1.188,0,0,0-1.148,1.148v2.839a1.147,1.147,0,0,0,1.148,1.148Zm6.524-1.208V64.275a1.147,1.147,0,0,0-1.148-1.148,1.189,1.189,0,0,0-1.148,1.148v2.839a1.148,1.148,0,1,0,2.3,0Zm0,0" transform="translate(-114.563 -132.408)"/></g></svg>