<svg xmlns="http://www.w3.org/2000/svg" xmlns:xlink="http://www.w3.org/1999/xlink" width="16.5" height="16.009" viewBox="0 0 16.5 16.009"><defs><style>.a,.c{fill:#e1ab5d;}.b{opacity:0;}.c{stroke:#707070;}.d{clip-path:url(#a);}.e{fill:#1c6a4f;}.f{fill:#d6912d;}</style><clipPath id="a"><rect class="a" width="14.429" height="13.478"/></clipPath></defs><g transform="translate(0.5 0.009)"><g class="b"><rect class="a" width="14.587" height="16" transform="translate(1.413)"/><rect class="c" width="15.328" height="14.741" transform="translate(0 0.491)"/></g><g transform="translate(0.647 0.693)"><g class="d"><g transform="translate(-0.005 -0.001)"><path class="e" d="M705.9,1118.676a.565.565,0,0,1,.658.376l.01.039.514,2.3h11.665a1.1,1.1,0,0,1,1.125,1.024v.054a1.036,1.036,0,0,1-.032.256l-.018.062-1.987,6.138a1.119,1.119,0,0,1-1.017.758h-8.128a1.12,1.12,0,0,1-1.088-.8l-.013-.053-2.123-9.52a.54.54,0,0,1,.43-.639Zm12.847,3.8H707.321l1.369,6.138h8.069Z" transform="translate(-705.45 -1118.664)"/><path class="e" d="M716.666,1130.964a.845.845,0,1,1-.844-.808h0a.826.826,0,0,1,.844.808m-6.39,0a.845.845,0,1,1-.844-.808h0a.826.826,0,0,1,.844.808" transform="translate(-705.215 -1118.327)"/></g></g><path class="f" d="M715.041,1126.257v.515a.515.515,0,0,1-.515.515h-4.631a.516.516,0,0,1-.515-.515v-.515Z" transform="translate(-704.888 -1118.412)"/></g></g></svg>