<svg xmlns="http://www.w3.org/2000/svg" width="16.123" height="16" viewBox="0 0 16.123 16"><defs><style>.a{opacity:0;}.b,.c{fill:#e1ab5d;}.c{stroke:#707070;}.d{fill:#1c6a4f;}.e{fill:#d6912d;}</style></defs><g class="a" transform="translate(0.494)"><rect class="b" width="16" height="16" transform="translate(-0.494)"/><rect class="c" width="15" height="15" transform="translate(0.129 0.5)"/></g><g transform="translate(1.032 0.86)"><path class="d" d="M908.51,1107.928a7.146,7.146,0,0,0,7.078-6.311.445.445,0,0,0-.344-.526.462.462,0,0,0-.073-.01.407.407,0,0,0-.417.4v.021a6.226,6.226,0,0,1-12.017,1.488h1.246L902.2,1101.2a.46.46,0,0,0-.3-.119.418.418,0,0,0-.434.4.406.406,0,0,0,.017.136,7.092,7.092,0,0,0,7.019,6.311" transform="translate(-901.419 -1093.649)"/><path class="d" d="M901.429,1099.652a.447.447,0,0,0,.344.529.463.463,0,0,0,.073.009.406.406,0,0,0,.417-.4v-.022a6.222,6.222,0,0,1,12.017-1.493h-1.246l1.785,1.792a.449.449,0,0,0,.3.119.418.418,0,0,0,.433-.4.434.434,0,0,0-.016-.136,7.053,7.053,0,0,0-7.019-6.332,7.155,7.155,0,0,0-7.079,6.332Z" transform="translate(-901.419 -1093.32)"/><path class="e" d="M905.07,1100.4l-.226-.745a7.038,7.038,0,0,0,1.586-2.422l.68.124a5.945,5.945,0,0,1-.283.621h1.588a7.19,7.19,0,0,0-.341-.683l.737-.124a3.314,3.314,0,0,1,.283.807h2.1v.621h-2.153v.435h1.814v.621h-1.814v.435h1.87v.621h-1.87v.435h2.267v.621h-5.5v-2.173a4.741,4.741,0,0,1-.737.807Zm5.842,4.346h-.68v-.373H906.49v.373h-.68v-2.484h5.1Zm-2.55-6.147h-1.87v.435h1.87Zm0,1.057h-1.87v.435h1.87Zm0,1.054h-1.87v.435h1.87Zm1.87,3.042v-.807H906.49v.807Z" transform="translate(-901.419 -1093.647)"/></g></svg>