<svg xmlns="http://www.w3.org/2000/svg" width="16" height="16" viewBox="0 0 16 16"><defs><style>.a{fill:#fff;stroke:#707070;opacity:0;}.b,.d,.f{fill:none;}.b{stroke:#1c6a4f;}.b,.c,.d{stroke-miterlimit:10;}.c{fill:#e1ab5d;stroke:#e2b472;}.d{stroke:#d6912d;stroke-linecap:round;}.e{stroke:none;}</style></defs><g class="a"><rect class="e" width="16" height="16"/><rect class="f" x="0.5" y="0.5" width="15" height="15"/></g><g transform="translate(2.513 1.96)"><path class="b" d="M629.563,1094.586h-7.534a1.655,1.655,0,0,1-1.719-1.59,1.841,1.841,0,0,1,0-.2l.815-6.856a1.686,1.686,0,0,1,1.714-1.434h5.9a1.686,1.686,0,0,1,1.715,1.434l.815,6.856a1.659,1.659,0,0,1-1.517,1.787A1.568,1.568,0,0,1,629.563,1094.586Z" transform="translate(-620.309 -1082.507)"/><path class="c" d="M627.285,1083.73" transform="translate(-620.058 -1082.508)"/><path class="b" d="M627.77,1084.506a2.044,2.044,0,0,0-4.087,0" transform="translate(-620.112 -1082.508)"/><path class="d" d="M623.4,1090.652a3.118,3.118,0,0,0,4.411,0l0,0" transform="translate(-620.119 -1082.19)"/></g></svg>