<svg xmlns="http://www.w3.org/2000/svg" width="16.077" height="16" viewBox="0 0 16.077 16"><defs><style>.a{fill:#1c6a4f;stroke:rgba(0,0,0,0);stroke-miterlimit:10;}.b{opacity:0;}.c,.d{fill:#e1ab5d;}.d{stroke:#707070;}.e{fill:none;stroke:#d6912d;stroke-linecap:round;stroke-linejoin:round;}</style></defs><g transform="translate(-8862 -4562)"><g class="b" transform="translate(8861.675 4562)"><rect class="c" width="16" height="16" transform="translate(0.325)"/><rect class="d" width="15" height="15" transform="translate(0.902 0.5)"/></g><path class="a" d="M5.71,13.478a1.854,1.854,0,0,1-1.064-.333L.954,10.416A2.6,2.6,0,0,1,0,8.5V2.425A1.851,1.851,0,0,1,1.22.712C1.29.684,1.4.646,1.544.6c.294-.093.6-.175.918-.245A14.72,14.72,0,0,1,5.661,0h.1a14.724,14.724,0,0,1,3.2.353c.315.07.624.152.918.245.142.045.255.083.328.112a1.868,1.868,0,0,1,1.216,1.712V8.5a2.592,2.592,0,0,1-.954,1.912l-3.692,2.73A1.852,1.852,0,0,1,5.71,13.478ZM5.661,1.014A13.715,13.715,0,0,0,2.7,1.341c-.288.065-.568.14-.833.222-.1.031-.16.052-.212.071l-.062.023-.041.014a.86.86,0,0,0-.512.754V8.505a1.611,1.611,0,0,0,.544,1.107l3.692,2.729a.807.807,0,0,0,.871,0L9.837,9.612a1.605,1.605,0,0,0,.545-1.107V2.426a.863.863,0,0,0-.519-.756l-.033-.013-.062-.023c-.051-.019-.115-.04-.211-.071-.267-.084-.539-.157-.833-.222a13.7,13.7,0,0,0-2.964-.327h-.1Z" transform="translate(8864.351 4563.252)"/><path class="e" d="M3152.091,235.623l1.866,1.666,2.855-3.009" transform="translate(5715.608 4333.71)"/></g></svg>