<svg xmlns="http://www.w3.org/2000/svg" width="20" height="20" viewBox="0 0 20 20"><defs><style>.a{fill:#fff;stroke:#707070;opacity:0;}.b,.c,.e{fill:none;}.b{stroke:#d6912d;stroke-linecap:round;stroke-width:2px;}.d,.f{stroke:none;}.f{fill:#1c6a4f;}</style></defs><g class="a"><rect class="d" width="20" height="20"/><rect class="e" x="0.5" y="0.5" width="19" height="19"/></g><g transform="translate(-99.822 -93)"><path class="b" d="M2719.109,145.413l3.754,3.754" transform="translate(-2605.937 -38.905)"/><g class="c" transform="translate(101.915 94.915)"><path class="d" d="M6.673,0A6.673,6.673,0,1,1,0,6.673,6.673,6.673,0,0,1,6.673,0Z"/><path class="f" d="M 6.672950744628906 2.000000953674316 C 4.096281051635742 2.000000953674316 2.000000953674316 4.096281051635742 2.000000953674316 6.672950744628906 C 2.000000953674316 9.24962043762207 4.096281051635742 11.3459005355835 6.672950744628906 11.3459005355835 C 9.24962043762207 11.3459005355835 11.3459005355835 9.24962043762207 11.3459005355835 6.672950744628906 C 11.3459005355835 4.096281051635742 9.24962043762207 2.000000953674316 6.672950744628906 2.000000953674316 M 6.672950744628906 9.5367431640625e-07 C 10.35832023620605 9.5367431640625e-07 13.3459005355835 2.987580299377441 13.3459005355835 6.672950744628906 C 13.3459005355835 10.35832023620605 10.35832023620605 13.3459005355835 6.672950744628906 13.3459005355835 C 2.987580299377441 13.3459005355835 9.5367431640625e-07 10.35832023620605 9.5367431640625e-07 6.672950744628906 C 9.5367431640625e-07 2.987580299377441 2.987580299377441 9.5367431640625e-07 6.672950744628906 9.5367431640625e-07 Z"/></g></g></svg>