<svg xmlns="http://www.w3.org/2000/svg" width="106.375" height="21" viewBox="0 0 106.375 21"><defs><style>.a{fill:#1c6a4f;}.b{fill:#d6912d;}</style></defs><g transform="translate(-21 -660)"><path class="a" d="M653.058,961.816l-2.479.729,1.634,5.3h-4.405l-3.091-9.917h-.554l-.964,6.711,2.975-.351-.379,2.77-7.467.788,2.858-20.446h13.3l-1.459,10.532h-3.88l.671,2.187,3.622-1.079ZM634.8,950.266l-2.479,17.5H628.5l2.858-20.358h8.581l-.388,2.829-1.255,4.375h1l-.146,2.508-1.6,7.467h-4.055l.321-2.479h.876l1.079-4.987h-1.283l.351-2.508,1.255-4.346Zm14.613,5.194.233-1.662h-4.929l-.233,1.662Zm-4.4-3.852h4.929l.233-1.662h-4.945Zm12.863-2.8-.731-.85h11.085L665.6,966.8H655.362Zm11.7,19.046,2.6-2.684,1.811-12.775h-5.806l.379-2.77h5.8l.291-1.955-.7-.816h5.8l-.409,2.77h1.954l-.379,2.77h-1.954l-1.9,13.534a2.3,2.3,0,0,1-2.275,1.925Zm2.19-5.483-10.21,1.662.758-5.542h-1.371l-.758,5.542Zm-.2-8.314h1.371l.7-4.987h-1.371Zm33.251-5.628-3,.259-.321,2.394h3.412l-.409,2.975H690.83l-1.692,12.135h-4.025l1.692-12.135h-3.384l.409-2.975h3.412l.294-2.07-3.209.259.409-2.975L695,947.113Zm5.8-2.245-.554-.992h4.894l-2.65,15.954h-4.229Zm1.983,16.944,1.75-6.269h3.7L705.3,967.8H693.045l.409-3Zm-5.075-5.837H694.1l2.363-10.477h3.209Zm7.729-10.477h3.412l-.345,8.762h-3.446ZM690.012,966.8l.962-10.267h2.716l-.966,10.267Zm-8.138,0,1.866-10.267h2.716L684.588,966.8Zm38.006-10.382.233-1.634h5.449l-.233,1.634h8.954l-.409,2.8h-2.742l1.838,8.05h-5.017l-1.861-8.052h-1.164l-.934,6.709a2.274,2.274,0,0,1-.776,1.385,2.141,2.141,0,0,1-1.444.539h-5.336l2.129-2.129.905-6.5H717.9l-3.763,8.05h-5.017l3.763-8.05H710.4l.409-2.8Zm14.995-9.537-7.7,3.967,7.174,4.316h-7.7L723,952.98l-4.165,2.129H711.13l8.341-4.258-6.563-3.967h7.73l3.033,1.838,3.588-1.838Z" transform="translate(-607.499 -286.854)"/><path class="b" d="M5.182,0,8.914,1.866,3.179,6.08,0,4.7Z" transform="matrix(0.921, -0.391, 0.391, 0.921, 57.611, 669.359)"/><path class="b" d="M7.289,0,9.328,1.382,0,5.873Z" transform="matrix(0.921, -0.391, 0.391, 0.921, 56.893, 674.917)"/></g></svg>