<svg xmlns="http://www.w3.org/2000/svg" xmlns:xlink="http://www.w3.org/1999/xlink" width="21" height="21" viewBox="0 0 21 21"><defs><style>.a{fill:none;}.b{fill:#fff;opacity:0;}.c{clip-path:url(#a);}.d{fill:#1c6a4f;}.e{fill:#d6912d;}</style><clipPath id="a"><rect class="a" width="17.363" height="15.708"/></clipPath></defs><rect class="b" width="21" height="21"/><g transform="translate(275.147 -80.354)"><g transform="translate(-273.614 83)"><g class="c" transform="translate(0 0)"><path class="d" d="M-256.576,86.626a1.118,1.118,0,0,0-.905-.463h-12.757l-.338-1.477a1.105,1.105,0,0,0-1.085-.86h-1.527a.537.537,0,0,0-.471.266.538.538,0,0,0,0,.542.538.538,0,0,0,.471.267h1.527a.031.031,0,0,1,.03.024l2.286,10a1.105,1.105,0,0,0,1.085.86h8.822a.537.537,0,0,0,.471-.266.537.537,0,0,0,0-.542.537.537,0,0,0-.471-.266h-8.822a.031.031,0,0,1-.03-.024l-.344-1.506h9.494a1.112,1.112,0,0,0,1.053-.747l1.659-4.807a1.1,1.1,0,0,0-.147-1Zm-.876.653-1.659,4.807a.031.031,0,0,1-.029.021h-9.74l-1.113-4.869h12.512a.031.031,0,0,1,.025.013.031.031,0,0,1,0,.028Zm0,0" transform="translate(273.73 -83.807)"/></g></g><path class="e" d="M-97.244,252.784h-5.4a.536.536,0,0,1-.464-.268.536.536,0,0,1,0-.536.536.536,0,0,1,.464-.268h5.4a.536.536,0,0,1,.464.268.536.536,0,0,1,0,.536.536.536,0,0,1-.464.268Zm-5.9,9.754a1.55,1.55,0,0,1-1.535-1.56,1.55,1.55,0,0,1,1.555-1.54,1.55,1.55,0,0,1,1.545,1.55,1.56,1.56,0,0,1-1.565,1.55Zm0-2.028a.479.479,0,0,0-.475.482.479.479,0,0,0,.481.476.479.479,0,0,0,.477-.479.481.481,0,0,0-.483-.478Zm7.8,2.028a1.55,1.55,0,0,1-1.535-1.56,1.55,1.55,0,0,1,1.555-1.54,1.55,1.55,0,0,1,1.545,1.55,1.56,1.56,0,0,1-1.565,1.55Zm0-2.028a.479.479,0,0,0-.475.482.479.479,0,0,0,.481.476.479.479,0,0,0,.477-.479.481.481,0,0,0-.483-.478Zm0,0" transform="translate(-164.823 -163.853)"/></g></svg>