<svg id="图层_1" data-name="图层 1" xmlns="http://www.w3.org/2000/svg" viewBox="0 0 200 200"><defs><style>.cls-1{fill:#fff;}</style></defs><path class="cls-1" d="M74.82,92.66H36.43A17.56,17.56,0,0,1,18.89,75.12V36.72A17.56,17.56,0,0,1,36.43,19.18H74.82A17.56,17.56,0,0,1,92.36,36.72v38.4A17.56,17.56,0,0,1,74.82,92.66Zm0-17.6v0Zm-.07-38.34-38.32.08.07,38.32L74.77,75V36.72Zm89.51,55.94h-38.4a17.56,17.56,0,0,1-17.54-17.54V36.72a17.56,17.56,0,0,1,17.54-17.54h38.4A17.56,17.56,0,0,1,181.8,36.72v38.4A17.57,17.57,0,0,1,164.26,92.66Zm0-17.6v0Zm-.08-38.34-38.32.08.08,38.32L164.2,75V36.72ZM74.82,181.31H36.43a17.56,17.56,0,0,1-17.54-17.54v-38.4a17.56,17.56,0,0,1,17.54-17.54H74.82a17.56,17.56,0,0,1,17.54,17.54v38.4A17.56,17.56,0,0,1,74.82,181.31Zm0-17.62v0Zm-.07-38.32-38.32.08.07,38.32,38.27-.08V125.37Zm98.24.08H169.9a8.81,8.81,0,0,1,0-17.62H173a8.81,8.81,0,0,1,0,17.62Zm-27.42,0H117.11a8.81,8.81,0,0,1,0-17.62h28.46a8.81,8.81,0,0,1,0,17.62ZM173,181.31H169.9a8.81,8.81,0,1,1,0-17.62H173a8.81,8.81,0,0,1,0,17.62Zm-27.42,0H117.11a8.81,8.81,0,0,1,0-17.62h28.46a8.81,8.81,0,0,1,0,17.62Zm-25.36-27.93h-3.08a8.81,8.81,0,0,1,0-17.62h3.08a8.81,8.81,0,1,1,0,17.62Zm52.78,0H144.53a8.81,8.81,0,0,1,0-17.62H173a8.81,8.81,0,0,1,0,17.62Z"/></svg>