<svg t="1627528550202" class="icon" viewBox="0 0 1024 1024" version="1.1" xmlns="http://www.w3.org/2000/svg" p-id="2157" width="200" height="200"><path d="M510.4 657.8c-63.7 0-128.7-10.9-193.4-32.5-51.1-17-102-40.7-151.4-70.4-84-50.4-134.9-101.1-137-103.2-19.6-19.5-19.5-51.2 0-70.7 19.6-19.5 51.2-19.5 70.7 0.1 0.4 0.4 45.9 45.4 120.1 89.5 66.8 39.7 171.4 87.1 291 87.1 232.4 0 412.8-175.4 414.6-177.2 19.7-19.4 51.3-19.2 70.7 0.5 19.4 19.7 19.2 51.3-0.5 70.7-2.2 2.1-53.8 52.8-138.6 103.2-49.8 29.7-101.1 53.3-152.4 70.4-64.9 21.6-130.2 32.5-193.8 32.5z" p-id="2158" fill="#D6912D"></path></svg>